<svg xmlns="http://www.w3.org/2000/svg" width="34.928" height="34.929" viewBox="0 0 34.928 34.929"><defs><style>.a{fill:#fff;}</style></defs><path class="a" d="M31.177,23.5a21.614,21.614,0,0,1-5.631,3.346l3.71,6.426,3.68,1.572a1.092,1.092,0,0,0,1.512-.873l.479-3.974Zm2.9-6.451a1.1,1.1,0,0,0-.413-1.527l-1.915-1.062a1.093,1.093,0,0,0-1.45.39,15.3,15.3,0,0,1-12.834,6.984,15.169,15.169,0,0,1-4.735-.787l4.6-7.96c.048,0,.091.014.139.014s.092-.013.139-.014l3.485,6.038a13,13,0,0,0,5.636-3.337l-3.533-6.12a6.465,6.465,0,0,0,.823-3.115,6.549,6.549,0,0,0-13.1,0,6.472,6.472,0,0,0,.822,3.115L7.078,17.735a15.253,15.253,0,0,1-2.3-2.661,1.094,1.094,0,0,0-1.459-.364l-1.893,1.1a1.094,1.094,0,0,0-.385,1.533,19.574,19.574,0,0,0,3.819,4.231L0,29.994l.479,3.974a1.092,1.092,0,0,0,1.512.873l3.68-1.572L10.5,24.9A19.583,19.583,0,0,0,17.464,26.2,19.676,19.676,0,0,0,34.076,17.046ZM17.464,4.366a2.183,2.183,0,1,1-2.183,2.183A2.183,2.183,0,0,1,17.464,4.366Z"/></svg>