<svg xmlns="http://www.w3.org/2000/svg" width="34.928" height="34.928" viewBox="0 0 34.928 34.928"><defs><style>.a{fill:#fff;}</style></defs><path class="a" d="M34.079,10.091,18.188,17.3a1.747,1.747,0,0,1-1.452,0L.845,10.091a1.524,1.524,0,0,1,0-2.731L16.735.151a1.747,1.747,0,0,1,1.452,0L34.079,7.359A1.525,1.525,0,0,1,34.079,10.091ZM.844,16.113l3.963-1.8,11.027,5a3.932,3.932,0,0,0,3.255,0l11.026-5,3.964,1.8a1.523,1.523,0,0,1,0,2.729l-15.891,7.2a1.752,1.752,0,0,1-1.452,0L.844,18.842a1.523,1.523,0,0,1,0-2.729Zm0,8.718,3.948-1.789,11.042,5.005a3.932,3.932,0,0,0,3.255,0l11.041-5.005,3.949,1.789a1.523,1.523,0,0,1,0,2.729l-15.891,7.2a1.752,1.752,0,0,1-1.452,0L.844,27.56A1.523,1.523,0,0,1,.844,24.831Z" transform="translate(0.003 0.007)"/></svg>