<svg xmlns="http://www.w3.org/2000/svg" width="34.928" height="24.45" viewBox="0 0 34.928 24.45"><defs><style>.a{fill:#fff;}</style></defs><path class="a" d="M5.239,42.479a3.493,3.493,0,1,0-3.493-3.493A3.5,3.5,0,0,0,5.239,42.479Zm24.45,0A3.493,3.493,0,1,0,26.2,38.986,3.5,3.5,0,0,0,29.689,42.479Zm1.746,1.746H27.943a3.483,3.483,0,0,0-2.461,1.015,7.983,7.983,0,0,1,4.1,5.971h3.6a1.745,1.745,0,0,0,1.746-1.746V47.718A3.5,3.5,0,0,0,31.436,44.225Zm-13.971,0a6.112,6.112,0,1,0-6.112-6.112A6.109,6.109,0,0,0,17.464,44.225Zm4.191,1.746H21.2a8.439,8.439,0,0,1-7.477,0h-.453a6.289,6.289,0,0,0-6.287,6.287V53.83a2.62,2.62,0,0,0,2.62,2.62H25.323a2.62,2.62,0,0,0,2.62-2.62V52.258A6.289,6.289,0,0,0,21.656,45.971ZM9.447,45.24a3.483,3.483,0,0,0-2.461-1.015H3.493A3.5,3.5,0,0,0,0,47.718v1.746a1.745,1.745,0,0,0,1.746,1.746h3.6a8,8,0,0,1,4.1-5.971Z" transform="translate(0 -32)"/></svg>